<svg id="cover-background" width="100%" height="100%" viewBox="0 0 595 60" fill="none"
    xmlns="http://www.w3.org/2000/svg">
    <g opacity="0.1">
        <path
            d="M353.008 270.377C322.782 298.41 281.124 307.889 239.813 308.985C185.426 310.428 130.984 309.587 76.5597 309.752C73.2359 309.752 69.8572 309.825 66.5881 310.318C58.5524 311.56 54.1327 316.381 54.0596 324.545C53.9866 332.197 59.8673 337.84 68.2318 338.151C75.8292 338.443 83.4266 338.187 91.0423 338.242C101.818 338.297 108.137 343.1 108.429 351.41C108.721 359.756 101.781 365.272 90.7319 365.29C66.4055 365.326 42.0791 365.253 17.7527 365.326C6.57571 365.363 0.0923228 370.513 0.00100756 379.151C-0.0903077 388.155 6.02781 393.196 17.3326 393.251C29.4958 393.305 41.659 393.068 53.8222 393.342C63.1181 393.543 68.7979 399.04 68.7979 407.057C68.7979 414.984 62.9355 420.17 53.6031 420.335C46.6083 420.444 39.6136 420.243 32.6188 420.389C22.4646 420.609 15.9629 426.252 15.9629 434.635C15.9629 439.328 18.1362 443.255 21.8984 445.775C24.3091 447.382 27.2312 448.076 30.135 448.076H57.9132C57.9132 448.076 58.0045 448.076 58.0593 448.076H57.8766C139.421 435.42 211.378 401.944 273.582 347.648C286.366 336.489 298.401 324.417 310.601 312.601C326.983 296.749 343.182 280.677 359.491 264.733C356.569 267.162 353.902 269.555 352.989 270.395L353.008 270.377ZM125.413 419.695C114.273 420.444 103.005 420.499 91.8642 419.695C84.4311 419.166 79.9384 413.943 79.7192 406.217C79.5183 399.204 85.5086 393.451 93.2156 393.05C98.6398 392.776 104.1 392.995 109.561 392.995C114.401 392.995 119.259 392.776 124.08 393.05C131.805 393.488 137.851 399.241 137.577 406.199C137.266 413.815 132.974 419.184 125.413 419.695ZM127.806 365.29C120.592 365.363 114.456 359.391 114.291 352.122C114.109 344.543 120.537 338.041 128.025 338.26C135.038 338.461 141.375 344.945 141.321 351.866C141.284 358.806 134.819 365.217 127.806 365.29Z"
            fill="#F69520" />
        <path
            d="M273.587 347.641C211.383 401.937 139.426 435.395 57.8818 448.069H58.0645C137.344 448.069 216.606 448.106 295.886 447.996C302.223 447.996 308.561 447.065 314.88 446.462C360.208 442.243 401.556 426.738 439.781 402.448C468.837 383.984 491.812 358.909 514.97 333.98C555.258 290.605 595.765 247.449 636.291 204.312C641.66 198.596 643.359 192.204 640.711 185.136C637.953 177.721 631.524 174.671 624.037 174.744C584.57 175.091 545.049 174.689 505.637 176.443C469.622 178.032 437.26 191.692 410.797 215.873C393.356 231.798 376.371 248.216 359.478 264.745C343.187 280.688 326.988 296.76 310.588 312.612C298.37 324.428 286.353 336.482 273.569 347.659L273.587 347.641Z"
            fill="#5565AF" />
        <path
            d="M770.428 5.74998C770.008 4.76377 769.223 3.79583 768.236 2.93747C765.99 0.98332 763.05 0.0153809 760.054 0.0153809H696.225C696.225 0.0153809 696.17 0.0153809 696.152 0.0153809C699.111 0.0153809 702.051 0.0153809 705.01 0.0153809H705.192C623.648 12.6717 551.691 46.1479 489.487 100.444C476.703 111.603 464.668 123.675 452.468 135.491C438.953 148.567 425.548 161.79 412.125 174.975C409.276 177.77 406.445 180.564 403.578 183.358C406.5 180.929 409.166 178.537 410.08 177.697C412.088 175.834 414.17 174.044 416.289 172.327C435.41 156.877 458.404 147.946 482.675 143.289C504.134 137.737 526.36 135.253 549.317 135.509C572 135.765 594.81 137.262 617.329 132.897C638.24 128.843 657.69 121.556 675.131 110.47C675.423 110.269 675.734 110.05 676.026 109.831C680.884 106.434 685.596 102.727 690.107 98.5811C695.714 93.4309 701.193 88.1346 706.598 82.7653C715.785 73.652 724.734 64.3013 733.573 54.8228C745.207 42.3491 756.694 29.6928 768.346 17.2374C770.684 14.7354 771.743 8.81817 770.428 5.74998Z"
            fill="#262262" />
        <path
            d="M705.012 0.01826C702.053 0.01826 699.113 0.01826 696.154 0.01826C619.833 0.01826 543.511 -0.0182644 467.19 0.0913139C460.853 0.0913139 454.516 1.02273 448.197 1.62541C402.868 5.84418 361.52 21.3495 323.295 45.6394C294.239 64.1033 271.264 89.1785 248.106 114.108C207.818 157.482 167.311 200.638 126.785 243.775C121.416 249.492 119.717 255.884 122.365 262.951C125.123 270.366 131.552 273.416 139.04 273.343C178.506 272.996 218.027 273.398 257.439 271.645C293.454 270.056 325.816 256.395 352.279 232.215C369.72 216.289 386.705 199.871 403.598 183.343C406.447 180.549 409.296 177.754 412.145 174.96C425.569 161.774 438.974 148.552 452.488 135.475C464.706 123.659 476.723 111.606 489.508 100.429C551.712 46.1325 623.668 12.6746 705.213 0H705.03L705.012 0.01826Z"
            fill="#5565AF" />
    </g>
</svg>